<svg xmlns="http://www.w3.org/2000/svg" viewBox="0 0 512 512">
  <defs>
    <linearGradient id="bg" x1="0" y1="0" x2="1" y2="1">
      <stop offset="0" stop-color="#111827" />
      <stop offset="1" stop-color="#2563eb" />
    </linearGradient>
  </defs>
  <rect width="512" height="512" rx="112" fill="url(#bg)" />
  <circle cx="256" cy="256" r="166" fill="rgba(255,255,255,0.09)" />
  <path d="M143 229h45v54h-45a17 17 0 0 1-17-17v-20a17 17 0 0 1 17-17Zm181 0h45a17 17 0 0 1 17 17v20a17 17 0 0 1-17 17h-45v-54ZM204 190h34v132h-34V190Zm70 0h34v132h-34V190Zm-52 50h68v32h-68v-32Z" fill="#fff" />
  <path d="M170 363h172" stroke="#86efac" stroke-width="28" stroke-linecap="round" />
</svg>
